# Blender 3.3.0
# www.blender.org
o Cube
v -0.500000 0.000000 0.500000
v -0.500000 1.000000 0.500000
v -0.500000 0.000000 -0.500000
v -0.500000 1.000000 -0.500000
v 0.500000 0.000000 0.500000
v 0.500000 1.000000 0.500000
v 0.500000 0.000000 -0.500000
v 0.500000 1.000000 -0.500000
vn -1.0000 -0.0000 -0.0000
vn -0.0000 -0.0000 -1.0000
vn 1.0000 -0.0000 -0.0000
vn -0.0000 -0.0000 1.0000
vn -0.0000 -1.0000 -0.0000
vn -0.0000 1.0000 -0.0000
vt 0.668965 0.000805
vt 0.334800 0.001691
vt 0.666179 1.000000
vt 0.668965 0.998960
vt 0.334800 0.999879
vt 0.333127 0.999762
vt 0.335553 0.000805
vt 0.667335 0.003689
vt 0.666179 -0.002694
vt 0.335553 0.998960
vt 0.667335 0.997072
vt 0.333127 -0.000238
vt 0.333333 0.031250
vt 0.667610 0.001691
vt 0.999269 1.000000
vt 0.333333 0.968750
vt 0.667610 0.999879
vt -0.000688 0.999762
vt 0.334256 0.003689
vt 0.666667 0.031250
vt 0.999269 -0.002694
vt 0.334256 0.997072
vt 0.666667 0.968750
vt -0.000688 -0.000238
s 0
f 1/1/1 2/4/1 4/10/1 3/7/1
f 3/8/2 4/11/2 8/22/2 7/19/2
f 7/20/3 8/23/3 6/16/3 5/13/3
f 5/14/4 6/17/4 2/5/4 1/2/4
f 3/9/5 7/21/5 5/15/5 1/3/5
f 8/24/6 4/12/6 2/6/6 6/18/6
